<svg width="315" height="419" viewBox="0 0 315 419" fill="none" xmlns="http://www.w3.org/2000/svg">
<path d="M106.657 212.552C117.742 202.223 132.857 191.516 152.003 180.432C165.229 172.748 175.274 166.041 182.139 160.278C189.004 154.515 193.318 147.682 195.144 139.778C197.632 128.851 195.018 119.057 187.303 110.366C179.588 101.675 168.378 95.6602 153.703 92.2908C138.651 88.8584 124.166 89.3307 110.31 93.6764C96.4228 98.022 84.2676 105.769 73.8129 116.822L0 52.4243C21.4448 29.594 47.9595 14.0693 79.5756 5.85038C111.16 -2.36854 146.901 -1.92769 186.799 7.17296C231.578 17.4073 265.493 34.9473 288.544 59.8245C311.563 84.7017 319.278 113.893 311.626 147.399C308.099 162.829 302.337 175.866 294.37 186.541C286.371 197.184 277.806 205.718 268.611 212.142C259.416 218.566 247.827 225.526 233.846 233.02C218.542 241.019 207.016 248.198 199.238 254.528C191.46 260.857 186.39 269.108 184.091 279.279L83.5748 256.323C87.889 237.492 95.5725 222.912 106.657 212.552ZM58.0048 389.18C48.5893 374.946 45.7552 359.548 49.534 342.984C53.4073 326.042 62.5079 313.478 76.8674 305.259C91.2269 297.04 107.791 295.087 126.622 299.401C145.453 303.716 159.623 312.69 169.196 326.357C178.738 340.024 181.604 355.328 177.73 372.27C173.951 388.833 164.725 401.492 150.05 410.215C135.376 418.938 118.623 421.174 99.8237 416.86C81.3705 412.64 67.4204 403.445 58.0048 389.18Z" fill="white"/>
</svg>
